<svg width="24" height="24" viewBox="0 0 24 24" fill="none" xmlns="http://www.w3.org/2000/svg">
<path d="M21.7632 6.6159C20.7548 4.88827 19.3871 3.52051 17.6597 2.5123C15.9319 1.50403 14.0458 1.00003 11.9998 1.00003C9.95414 1.00003 8.06736 1.50419 6.33999 2.5123C4.61236 3.52045 3.2447 4.88827 2.23639 6.6159C1.22823 8.34347 0.724121 10.23 0.724121 12.2754C0.724121 14.7324 1.44097 16.9419 2.87502 18.9042C4.30891 20.8668 6.16129 22.2248 8.432 22.9784C8.69632 23.0274 8.89199 22.9929 9.01921 22.8757C9.14648 22.7584 9.21004 22.6114 9.21004 22.4354C9.21004 22.4061 9.20752 22.1419 9.20264 21.6426C9.1976 21.1434 9.19523 20.7078 9.19523 20.3362L8.85753 20.3946C8.64222 20.434 8.3706 20.4507 8.04267 20.446C7.7149 20.4414 7.37463 20.4071 7.02233 20.3432C6.66987 20.2799 6.34204 20.1331 6.03859 19.9031C5.7353 19.6731 5.51999 19.372 5.39271 19.0003L5.2459 18.6624C5.14804 18.4375 4.99398 18.1876 4.7835 17.9138C4.57302 17.6396 4.36018 17.4538 4.14487 17.3559L4.04207 17.2823C3.97358 17.2334 3.91002 17.1744 3.85124 17.106C3.79251 17.0376 3.74855 16.9691 3.71918 16.9005C3.68977 16.8318 3.71414 16.7755 3.79257 16.7313C3.87099 16.6872 4.01271 16.6657 4.21835 16.6657L4.51188 16.7096C4.70765 16.7488 4.9498 16.866 5.23865 17.0619C5.52734 17.2576 5.76466 17.512 5.95066 17.8251C6.17589 18.2265 6.44726 18.5324 6.76552 18.7429C7.08352 18.9533 7.40415 19.0584 7.72709 19.0584C8.05003 19.0584 8.32895 19.0339 8.56395 18.9852C8.7987 18.9363 9.01895 18.8627 9.22459 18.7649C9.31268 18.1088 9.55252 17.6048 9.94391 17.2525C9.38606 17.1939 8.88453 17.1056 8.43905 16.9882C7.99382 16.8706 7.53373 16.6799 7.05909 16.4153C6.5842 16.1512 6.19024 15.8231 5.87712 15.4318C5.56395 15.0403 5.30694 14.5262 5.10644 13.8902C4.90584 13.2539 4.80551 12.5198 4.80551 11.6879C4.80551 10.5034 5.19221 9.49536 5.96547 8.66333C5.60324 7.77277 5.63744 6.77444 6.06816 5.66842C6.35202 5.58023 6.77297 5.64641 7.33082 5.86655C7.88876 6.0868 8.29727 6.27547 8.55675 6.4319C8.81624 6.58828 9.02414 6.7208 9.18078 6.82828C10.0912 6.57388 11.0308 6.44666 11.9997 6.44666C12.9686 6.44666 13.9084 6.57388 14.8189 6.82828L15.3768 6.47608C15.7583 6.24107 16.2088 6.02571 16.7273 5.82994C17.2461 5.63427 17.6427 5.58038 17.9169 5.66857C18.3572 6.77464 18.3965 7.77293 18.0341 8.66348C18.8073 9.49551 19.1942 10.5038 19.1942 11.6881C19.1942 12.52 19.0935 13.2563 18.8932 13.8975C18.6926 14.5388 18.4334 15.0523 18.1154 15.4392C17.7971 15.8259 17.4006 16.1514 16.9259 16.4155C16.4512 16.6798 15.991 16.8706 15.5457 16.9881C15.1003 17.1057 14.5988 17.194 14.0409 17.2528C14.5497 17.6931 14.8042 18.388 14.8042 19.3374V22.435C14.8042 22.611 14.8653 22.7579 14.9878 22.8753C15.1102 22.9925 15.3034 23.027 15.5677 22.9779C17.8387 22.2244 19.6911 20.8663 21.1249 18.9038C22.5586 16.9414 23.2757 14.732 23.2757 12.275C23.2752 10.2298 22.7708 8.34347 21.7632 6.6159Z"/>
</svg>
